# xmcd
#
# Track frame offsets: 
#        150
#        17020
#        32348
#        48024
#        89186
#        112247
#        129875
#        146516
#        172784
#        185904
#        199587
#        215695
#        231207
#        250149
#        265933
#        291869
#        310499
#
# Disc length: 4347 seconds
#
# Revision: 2
# Processed by: cddbd v1.5.2PL0 Copyright (c) Steve Scherf et al.
# Submitted via: ExactAudioCopy v1.3
#
DISCID=f710f911
DTITLE=Spooky Tooth - Spooky Two (2016 Remaster)
DYEAR=1969
DGENRE=Classic Rock
TTITLE0=Waitin' For The Wind
TTITLE1=Feelin' Bad
TTITLE2=I've Got Enough Heartaches
TTITLE3=Evil Woman
TTITLE4=Lost In My Dream
TTITLE5=That Was Only Yesterday
TTITLE6=Better By You, Better Than Me
TTITLE7=Hangman, Hang My Shell On A Tree
TTITLE8=Feelin' Bad (BBC 1968)
TTITLE9=I Can’t Quit Her (BBC 1968)
TTITLE10=Blues Town (BBC 1968)
TTITLE11=Something Got Into Your Life (Bonus Track)
TTITLE12=When I Get Home (Bonus Track)
TTITLE13=Waitin' For The Wind (First Mix)
TTITLE14=Lost In My Dream (First Mix)
TTITLE15=Better By You, Better Than Me (First Mix)
TTITLE16=Pretty Woman (B-side of European Single)
EXTD=
EXTT0=
EXTT1=
EXTT2=
EXTT3=
EXTT4=
EXTT5=
EXTT6=
EXTT7=
EXTT8=
EXTT9=
EXTT10=
EXTT11=
EXTT12=
EXTT13=
EXTT14=
EXTT15=
EXTT16=
PLAYORDER=
